<?xml version="1.0" encoding="UTF-8"?>
<svg id="Calque_2" data-name="Calque 2" xmlns="http://www.w3.org/2000/svg" viewBox="0 0 164.93 163.87">
  <defs>
    <style>
      .cls-1, .cls-2 {
        fill: #1d1d1b;
      }

      .cls-3 {
        fill: #fff;
      }

      .cls-2 {
        stroke: #fff;
        stroke-miterlimit: 10;
        stroke-width: 3px;
      }
    </style>
  </defs>
  <g id="Calque_1-2" data-name="Calque 1">
    <g>
      <polygon class="cls-1" points="120.71 72.45 120.18 72.35 118.82 72.09 118.29 71.99 93.19 67.2 91.41 66.86 86.21 65.87 86.13 65.44 85.76 63.53 80.1 33.79 80 33.27 79.74 31.9 79.64 31.37 76.04 12.53 72.45 31.37 72.35 31.9 72.09 33.27 71.99 33.79 67.2 58.9 66.86 60.67 65.87 65.87 65.43 65.95 63.52 66.32 63.52 66.32 33.79 71.99 33.27 72.09 31.9 72.35 31.37 72.45 12.53 76.04 31.37 79.64 31.9 79.74 33.27 80 33.79 80.1 58.89 84.88 60.67 85.22 65.87 86.21 65.95 86.65 66.32 88.56 66.32 88.56 71.99 118.29 72.09 118.82 72.35 120.18 72.45 120.71 76.04 139.56 79.64 120.71 79.74 120.18 80 118.82 80.1 118.29 84.88 93.19 85.22 91.42 86.21 86.21 86.65 86.13 88.56 85.76 118.29 80.1 118.82 80 120.18 79.74 120.71 79.64 139.56 76.04 120.71 72.45"/>
      <polygon class="cls-1" points="120.71 72.45 120.18 72.35 118.82 72.09 118.29 71.99 93.19 67.2 91.41 66.86 86.21 65.87 86.13 65.44 85.76 63.53 80.1 33.79 80 33.27 79.74 31.9 79.64 31.37 76.04 12.53 72.45 31.37 72.35 31.9 72.09 33.27 71.99 33.79 67.2 58.9 66.86 60.67 65.87 65.87 65.43 65.95 63.52 66.32 63.52 66.32 33.79 71.99 33.27 72.09 31.9 72.35 31.37 72.45 12.53 76.04 31.37 79.64 31.9 79.74 33.27 80 33.79 80.1 58.89 84.88 60.67 85.22 65.87 86.21 65.95 86.65 66.32 88.56 66.32 88.56 71.99 118.29 72.09 118.82 72.35 120.18 72.45 120.71 76.04 139.56 79.64 120.71 79.74 120.18 80 118.82 80.1 118.29 84.88 93.19 85.22 91.42 86.21 86.21 86.65 86.13 88.56 85.76 118.29 80.1 118.82 80 120.18 79.74 120.71 79.64 139.56 76.04 120.71 72.45"/>
      <path class="cls-3" d="M77.44,57.71l.03.18,1.12,5.9c-.81-.23-1.67-.36-2.55-.36s-1.75.12-2.56.36l1.12-5.9.04-.18.09-.49.03-.18,1.27-6.65,1.27,6.65"/>
      <path class="cls-3" d="M101.7,76.04l-6.65,1.27-.19.04-.48.09-.19.03-5.9,1.13c.23-.81.36-1.67.36-2.56s-.12-1.75-.36-2.56l5.9,1.13.19.03.48.09.19.04,6.65,1.27Z"/>
      <path class="cls-3" d="M78.59,88.29l-1.12,5.9-.03.18-.09.49-.04.18-1.27,6.65-1.27-6.65-.03-.18-.09-.49-.04-.18-1.12-5.9c.81.23,1.67.36,2.56.36s1.74-.12,2.55-.36Z"/>
      <path class="cls-3" d="M63.43,76.04c0,.89.12,1.75.36,2.56l-5.9-1.13-.18-.03-.49-.09-.18-.04-6.65-1.27,6.65-1.27.18-.04.49-.09.18-.03,5.9-1.13c-.23.81-.36,1.67-.36,2.56Z"/>
      <path class="cls-3" d="M85.05,73.49c-.88-3.11-3.34-5.57-6.46-6.45-.81-.23-1.67-.36-2.55-.36s-1.75.12-2.56.36c-3.11.88-5.57,3.33-6.46,6.45-.23.81-.36,1.67-.36,2.56s.12,1.75.36,2.56c.88,3.11,3.34,5.57,6.46,6.45.81.23,1.67.36,2.56.36s1.74-.12,2.55-.36c3.11-.88,5.57-3.33,6.46-6.45.23-.81.36-1.67.36-2.56s-.12-1.75-.36-2.56ZM81.19,79.33c-.47.75-1.12,1.39-1.86,1.86-.95.61-2.08.97-3.29.97s-2.34-.36-3.3-.97c-.75-.48-1.39-1.12-1.86-1.86-.61-.95-.97-2.08-.97-3.29s.36-2.34.97-3.29c.47-.75,1.12-1.39,1.87-1.86.95-.61,2.08-.97,3.29-.97s2.34.35,3.28.96c.75.47,1.39,1.12,1.87,1.87.61.95.97,2.08.97,3.29s-.36,2.34-.97,3.29Z"/>
      <path class="cls-2" d="M22.51,160.57s16.94-3.87,35.52-10.65c3.89-1.41,7.84-2.95,11.74-4.61,15.89-6.78,30.64-15.52,34.72-25.6,1.06-2.63,2.44-5.13,3.93-7.55l6.72-10.95s10.99,22.35,15.75,12.83c4.76-9.52,5.86-31.87,5.86-31.87,0,0,2.89,4.59,7.07,9.58,1.58,1.89,3.35,3.85,5.23,5.62,4.16,3.96,8.81,7.06,12.98,6.78,10.99-.73-43.08,70.35-139.51,56.42Z"/>
      <path class="cls-3" d="M49.55,156.02l3.37-.77c.11-.03,11.39-2.63,23.58-7.07,2.69-.97,5.3-2,7.79-3.06,12.85-5.48,20.51-11.1,22.77-16.69.64-1.58,1.49-3.2,2.66-5.13l5.09-8.3.52,1.06c1.65,3.35,4.84,8.47,7.12,9.54v1.38c-3.04-.93-6.43-6.8-7.75-9.31l-3.87,6.31c-1.14,1.86-1.95,3.42-2.57,4.93-2.39,5.92-10.28,11.78-23.47,17.4-2.5,1.06-5.14,2.1-7.84,3.08-8.25,3.01-16.09,5.18-20.37,6.28"/>
      <path class="cls-1" d="M152.08,76.04c0,7.4-1.06,14.55-3.04,21.32-1.87-1.78-3.65-3.73-5.23-5.62,1.17-5.04,1.78-10.3,1.78-15.69,0-38.35-31.2-69.56-69.55-69.56S6.49,37.69,6.49,76.04c0,36.23,27.85,66.09,63.28,69.27-3.89,1.65-7.85,3.2-11.74,4.61C24.76,141.82,0,111.77,0,76.04,0,34.11,34.11,0,76.04,0s76.04,34.11,76.04,76.04Z"/>
    </g>
  </g>
</svg>