<?xml version="1.0" encoding="UTF-8"?>
<svg id="Calque_2" data-name="Calque 2" xmlns="http://www.w3.org/2000/svg" viewBox="0 0 193.47 193.47">
  <defs>
    <style>
      .cls-1 {
        fill: #1d1d1b;
      }

      .cls-2 {
        stroke: #1d1d1b;
        stroke-miterlimit: 10;
        stroke-width: 3px;
      }

      .cls-2, .cls-3 {
        fill: #fff;
      }
    </style>
  </defs>
  <g id="Calque_1-2" data-name="Calque 1">
    <g>
      <rect class="cls-1" width="193.47" height="193.47" rx="5.67" ry="5.67"/>
      <g>
        <polygon class="cls-1" points="135.73 88 135.21 87.9 133.84 87.64 133.31 87.54 108.21 82.75 106.43 82.41 101.23 81.42 101.15 80.99 100.79 79.07 95.12 49.34 95.02 48.82 94.76 47.45 94.66 46.92 91.06 28.08 87.47 46.92 87.37 47.45 87.11 48.82 87.01 49.34 82.22 74.44 81.88 76.22 80.89 81.42 80.46 81.5 78.55 81.87 78.54 81.87 48.81 87.54 48.29 87.64 46.92 87.9 46.4 88 27.55 91.59 46.4 95.18 46.92 95.28 48.29 95.54 48.81 95.64 73.91 100.43 75.69 100.77 80.89 101.76 80.97 102.2 81.34 104.11 81.34 104.11 87.01 133.84 87.11 134.36 87.37 135.73 87.47 136.26 91.06 155.1 94.66 136.26 94.76 135.73 95.02 134.36 95.12 133.84 99.9 108.74 100.24 106.96 101.23 101.76 101.67 101.68 103.58 101.31 133.31 95.64 133.84 95.54 135.21 95.28 135.73 95.18 154.58 91.59 135.73 88"/>
        <polygon class="cls-3" points="135.73 88 135.21 87.9 133.84 87.64 133.31 87.54 108.21 82.75 106.43 82.41 101.23 81.42 101.15 80.99 100.79 79.07 95.12 49.34 95.02 48.82 94.76 47.45 94.66 46.92 91.06 28.08 87.47 46.92 87.37 47.45 87.11 48.82 87.01 49.34 82.22 74.44 81.88 76.22 80.89 81.42 80.46 81.5 78.55 81.87 78.54 81.87 48.81 87.54 48.29 87.64 46.92 87.9 46.4 88 27.55 91.59 46.4 95.18 46.92 95.28 48.29 95.54 48.81 95.64 73.91 100.43 75.69 100.77 80.89 101.76 80.97 102.2 81.34 104.11 81.34 104.11 87.01 133.84 87.11 134.36 87.37 135.73 87.47 136.26 91.06 155.1 94.66 136.26 94.76 135.73 95.02 134.36 95.12 133.84 99.9 108.74 100.24 106.96 101.23 101.76 101.67 101.68 103.58 101.31 133.31 95.64 133.84 95.54 135.21 95.28 135.73 95.18 154.58 91.59 135.73 88"/>
        <path class="cls-1" d="M92.46,73.26l.03.18,1.12,5.9c-.81-.23-1.67-.36-2.55-.36s-1.75.12-2.56.36l1.12-5.9.04-.18.09-.49.03-.18,1.27-6.65,1.27,6.65"/>
        <path class="cls-1" d="M116.72,91.59l-6.65,1.27-.19.04-.48.09-.19.03-5.9,1.13c.23-.81.36-1.67.36-2.56s-.12-1.75-.36-2.56l5.9,1.13.19.03.48.09.19.04,6.65,1.27Z"/>
        <path class="cls-1" d="M93.61,103.84l-1.12,5.9-.03.18-.09.49-.04.18-1.27,6.65-1.27-6.65-.03-.18-.09-.49-.04-.18-1.12-5.9c.81.23,1.67.36,2.56.36s1.74-.12,2.55-.36Z"/>
        <path class="cls-1" d="M78.45,91.59c0,.89.12,1.75.36,2.56l-5.9-1.13-.18-.03-.49-.09-.18-.04-6.65-1.27,6.65-1.27.18-.04.49-.09.18-.03,5.9-1.13c-.23.81-.36,1.67-.36,2.56Z"/>
        <path class="cls-1" d="M100.07,89.03c-.88-3.11-3.34-5.57-6.46-6.45-.81-.23-1.67-.36-2.55-.36s-1.75.12-2.56.36c-3.11.88-5.57,3.33-6.46,6.45-.23.81-.36,1.67-.36,2.56s.12,1.75.36,2.56c.88,3.11,3.34,5.57,6.46,6.45.81.23,1.67.36,2.56.36s1.74-.12,2.55-.36c3.11-.88,5.57-3.33,6.46-6.45.23-.81.36-1.67.36-2.56s-.12-1.75-.36-2.56ZM96.22,94.88c-.47.75-1.12,1.39-1.86,1.86-.95.61-2.08.97-3.29.97s-2.34-.36-3.3-.97c-.75-.48-1.39-1.12-1.86-1.86-.61-.95-.97-2.08-.97-3.29s.36-2.34.97-3.29c.47-.75,1.12-1.39,1.87-1.86.95-.61,2.08-.97,3.29-.97s2.34.35,3.28.96c.75.47,1.39,1.12,1.87,1.87.61.95.97,2.08.97,3.29s-.36,2.34-.97,3.29Z"/>
        <path class="cls-2" d="M37.53,176.11s16.94-3.87,35.52-10.65c3.89-1.41,7.84-2.95,11.74-4.61,15.89-6.78,30.64-15.52,34.72-25.6,1.06-2.63,2.44-5.13,3.93-7.55l6.72-10.95s10.99,22.35,15.75,12.83c4.76-9.52,5.86-31.87,5.86-31.87,0,0,2.89,4.59,7.07,9.58,1.58,1.89,3.35,3.85,5.23,5.62,4.16,3.96,8.81,7.06,12.98,6.78,10.99-.73-43.08,70.35-139.51,56.42Z"/>
        <path class="cls-1" d="M64.57,171.56l3.37-.77c.11-.03,11.39-2.63,23.58-7.07,2.69-.97,5.3-2,7.79-3.06,12.85-5.48,20.51-11.1,22.77-16.69.64-1.58,1.49-3.2,2.66-5.13l5.09-8.3.52,1.06c1.65,3.35,4.84,8.47,7.12,9.54v1.38c-3.04-.93-6.43-6.8-7.75-9.31l-3.87,6.31c-1.14,1.86-1.95,3.42-2.57,4.93-2.39,5.92-10.28,11.78-23.47,17.4-2.5,1.06-5.14,2.1-7.84,3.08-8.25,3.01-16.09,5.18-20.37,6.28"/>
        <path class="cls-3" d="M167.1,91.59c0,7.4-1.06,14.55-3.04,21.32-1.87-1.78-3.65-3.73-5.23-5.62,1.17-5.04,1.78-10.3,1.78-15.69,0-38.35-31.2-69.56-69.55-69.56S21.51,53.24,21.51,91.59c0,36.23,27.85,66.09,63.28,69.27-3.89,1.65-7.85,3.2-11.74,4.61-33.26-8.1-58.03-38.15-58.03-73.88C15.02,49.66,49.13,15.55,91.06,15.55s76.04,34.11,76.04,76.04Z"/>
      </g>
    </g>
  </g>
</svg>