<?xml version="1.0" encoding="UTF-8"?>
<svg id="Calque_2" data-name="Calque 2" xmlns="http://www.w3.org/2000/svg" viewBox="0 0 181.66 27.87">
  <defs>
    <style>
      .cls-1 {
        fill: #060b0b;
      }
    </style>
  </defs>
  <g id="Calque_1-2" data-name="Calque 1">
    <g>
      <path class="cls-1" d="M169.18,27.87c-1.46,0-3-.07-4.62-.2s-3.15-.3-4.62-.5c-1.46-.2-2.7-.38-3.69-.54l.45-5.44c1.07.08,2.3.19,3.72.32,1.41.13,2.84.24,4.27.34,1.43.09,2.68.14,3.74.14s1.85-.09,2.47-.28c.62-.18,1.07-.46,1.35-.81s.42-.83.42-1.41c0-.48-.13-.85-.4-1.13-.27-.28-.77-.52-1.52-.71-.75-.2-1.82-.39-3.22-.58-2.16-.29-3.99-.64-5.47-1.05-1.48-.41-2.67-.93-3.57-1.55-.9-.62-1.55-1.41-1.95-2.36-.4-.95-.6-2.1-.6-3.45,0-2.28.51-4.03,1.52-5.28,1.01-1.24,2.45-2.12,4.32-2.62S165.86,0,168.43,0c1.2,0,2.55.05,4.07.16,1.51.11,3,.23,4.44.36,1.45.13,2.7.28,3.77.44l-.35,5.56c-1-.08-2.17-.17-3.52-.26-1.35-.09-2.7-.18-4.07-.26-1.37-.08-2.56-.12-3.59-.12-.97,0-1.77.07-2.42.22-.65.15-1.12.36-1.4.66-.28.29-.42.68-.42,1.15,0,.53.15.95.45,1.25.3.3.82.56,1.57.75.75.2,1.82.43,3.22.69,2.16.37,3.98.75,5.44,1.15,1.46.4,2.64.89,3.52,1.47.88.58,1.52,1.33,1.92,2.24.4.91.6,2.08.6,3.51,0,2.17-.48,3.91-1.45,5.22-.97,1.31-2.38,2.25-4.24,2.82-1.86.57-4.13.85-6.79.85Z"/>
      <path class="cls-1" d="M8.49,27.87V6.05H0V0h25.88v6.05h-8.18v21.82h-9.21Z"/>
      <path class="cls-1" d="M28.33,27.87V0h14.13C45.53,0,48.08.28,50.12.84c2.04.56,3.56,1.54,4.58,2.92,1.02,1.39,1.53,3.33,1.53,5.82,0,2-.41,3.68-1.22,5.02-.81,1.35-2.01,2.39-3.6,3.13l4.61,10.13h-9.47l-3.52-8.44h-5.49v8.44h-9.21ZM37.54,13.54h5.18c1,0,1.8-.16,2.41-.49.6-.33,1.04-.79,1.32-1.38.28-.59.41-1.27.41-2.04,0-1.26-.35-2.21-1.06-2.84-.71-.63-1.82-.95-3.34-.95h-4.92v7.7Z"/>
      <path class="cls-1" d="M58.67,27.87V0h24.54v5.93h-15.32v4.94h7.96v5.89h-7.96v5.15h15.32v5.97h-24.54Z"/>
      <polygon class="cls-1" points="144.29 0 144.29 9.47 132.62 0 119.58 0 136.76 13.93 119.58 27.87 132.62 27.87 144.29 18.4 144.29 27.87 153.5 27.87 153.5 0 144.29 0"/>
      <g>
        <polygon class="cls-1" points="86.69 .84 85.65 .84 85.65 0 86.69 .84"/>
        <polygon class="cls-1" points="88.78 2.53 85.65 2.53 85.65 1.69 87.74 1.69 88.78 2.53"/>
        <polygon class="cls-1" points="90.86 4.22 85.65 4.22 85.65 3.38 89.82 3.38 90.86 4.22"/>
        <polygon class="cls-1" points="92.94 5.91 85.65 5.91 85.65 5.07 91.9 5.07 92.94 5.91"/>
        <polygon class="cls-1" points="95.02 7.6 85.65 7.6 85.65 6.76 93.98 6.76 95.02 7.6"/>
        <polygon class="cls-1" points="97.11 9.29 85.65 9.29 85.65 8.44 96.07 8.44 97.11 9.29"/>
        <polygon class="cls-1" points="99.19 10.98 85.65 10.98 85.65 10.13 98.15 10.13 99.19 10.98"/>
        <polygon class="cls-1" points="101.27 12.67 85.65 12.67 85.65 11.82 100.23 11.82 101.27 12.67"/>
        <polygon class="cls-1" points="102.84 13.93 102.32 14.36 85.65 14.36 85.65 13.51 102.31 13.51 102.84 13.93"/>
        <polygon class="cls-1" points="101.27 15.2 100.23 16.04 85.65 16.04 85.65 15.2 101.27 15.2"/>
        <polygon class="cls-1" points="99.19 16.89 98.15 17.73 85.65 17.73 85.65 16.89 99.19 16.89"/>
        <polygon class="cls-1" points="97.11 18.58 96.07 19.42 85.65 19.42 85.65 18.58 97.11 18.58"/>
        <polygon class="cls-1" points="95.02 20.27 93.99 21.11 85.65 21.11 85.65 20.27 95.02 20.27"/>
        <polygon class="cls-1" points="92.94 21.95 91.9 22.8 85.65 22.8 85.65 21.95 92.94 21.95"/>
        <polygon class="cls-1" points="90.86 23.64 89.82 24.49 85.65 24.49 85.65 23.64 90.86 23.64"/>
        <polygon class="cls-1" points="88.78 25.33 87.74 26.18 85.65 26.18 85.65 25.33 88.78 25.33"/>
        <polygon class="cls-1" points="86.69 27.02 85.65 27.87 85.65 27.02 86.69 27.02"/>
        <polygon class="cls-1" points="120.62 .84 119.58 .84 119.58 0 120.62 .84"/>
        <polygon class="cls-1" points="122.7 2.53 119.58 2.53 119.58 1.69 121.66 1.69 122.7 2.53"/>
        <polygon class="cls-1" points="124.78 4.22 119.58 4.22 119.58 3.38 123.74 3.38 124.78 4.22"/>
        <polygon class="cls-1" points="126.87 5.91 119.58 5.91 119.58 5.07 125.82 5.07 126.87 5.91"/>
        <polygon class="cls-1" points="128.95 7.6 119.58 7.6 119.58 6.76 127.91 6.76 128.95 7.6"/>
        <polygon class="cls-1" points="131.03 9.29 119.58 9.29 119.58 8.44 129.99 8.44 131.03 9.29"/>
        <polygon class="cls-1" points="133.12 10.98 119.58 10.98 119.58 10.13 132.07 10.13 133.12 10.98"/>
        <polygon class="cls-1" points="135.2 12.67 119.58 12.67 119.58 11.82 134.16 11.82 135.2 12.67"/>
        <polygon class="cls-1" points="136.76 13.93 136.24 14.36 119.58 14.36 119.58 13.51 136.24 13.51 136.76 13.93"/>
        <polygon class="cls-1" points="135.2 15.2 134.16 16.04 119.58 16.04 119.58 15.2 135.2 15.2"/>
        <polygon class="cls-1" points="133.12 16.89 132.07 17.73 119.58 17.73 119.58 16.89 133.12 16.89"/>
        <polygon class="cls-1" points="131.03 18.58 129.99 19.42 119.58 19.42 119.58 18.58 131.03 18.58"/>
        <polygon class="cls-1" points="128.95 20.27 127.91 21.11 119.58 21.11 119.58 20.27 128.95 20.27"/>
        <polygon class="cls-1" points="126.87 21.95 125.83 22.8 119.58 22.8 119.58 21.95 126.87 21.95"/>
        <polygon class="cls-1" points="124.79 23.64 123.74 24.49 119.58 24.49 119.58 23.64 124.79 23.64"/>
        <polygon class="cls-1" points="122.7 25.33 121.66 26.18 119.58 26.18 119.58 25.33 122.7 25.33"/>
        <polygon class="cls-1" points="120.62 27.02 119.58 27.87 119.58 27.02 120.62 27.02"/>
        <polygon class="cls-1" points="110.36 .84 110.36 1.69 100.77 1.69 99.73 .84 110.36 .84"/>
        <polygon class="cls-1" points="110.36 2.53 110.36 3.38 102.86 3.38 101.82 2.53 110.36 2.53"/>
        <polygon class="cls-1" points="110.36 4.22 110.36 5.07 104.94 5.07 103.9 4.22 110.36 4.22"/>
        <polygon class="cls-1" points="110.36 5.91 110.36 6.76 107.02 6.76 105.98 5.91 110.36 5.91"/>
        <polygon class="cls-1" points="110.36 7.6 110.36 8.44 109.11 8.44 108.07 7.6 110.36 7.6"/>
        <polygon class="cls-1" points="110.15 9.29 110.36 9.29 110.36 9.46 110.15 9.29"/>
        <polygon class="cls-1" points="110.36 18.4 110.36 18.58 110.15 18.58 110.36 18.4"/>
        <polygon class="cls-1" points="109.1 19.42 110.36 19.42 110.36 20.27 108.06 20.27 109.1 19.42"/>
        <polygon class="cls-1" points="107.02 21.11 110.36 21.11 110.36 21.95 105.98 21.95 107.02 21.11"/>
        <polygon class="cls-1" points="104.94 22.8 110.36 22.8 110.36 23.64 103.9 23.64 104.94 22.8"/>
        <polygon class="cls-1" points="102.86 24.49 110.36 24.49 110.36 25.33 101.82 25.33 102.86 24.49"/>
        <polygon class="cls-1" points="100.77 26.18 110.36 26.18 110.36 27.02 99.73 27.02 100.77 26.18"/>
      </g>
    </g>
  </g>
</svg>