<?xml version="1.0" encoding="UTF-8"?>
<svg id="Calque_2" data-name="Calque 2" xmlns="http://www.w3.org/2000/svg" viewBox="0 0 1129.15 282.03">
  <defs>
    <style>
      .cls-1 {
        fill: #020a0a;
      }
    </style>
  </defs>
  <g id="Calque_1-2" data-name="Calque 1">
    <g>
      <g>
        <path class="cls-1" d="M186.25,218.82h42.35l7.59,9.57-4.88,23.12-11.65,9.57h-26.82l-4.43,20.95h-15.62l13.45-63.21ZM216.59,247.36l3.07-14.81h-20.77l-3.16,14.81h20.86Z"/>
        <path class="cls-1" d="M248.27,218.82h15.63l-10.48,49.12h29.9l-2.98,14.09h-45.52l13.45-63.21Z"/>
        <path class="cls-1" d="M322.48,218.82h15.71l11.74,63.21h-16.52l-1.44-9.21h-25.65l-5.33,9.21h-17.07l38.56-63.21ZM329.79,259.1l-3.34-21.14-12.19,21.14h15.53Z"/>
        <path class="cls-1" d="M367.07,259.64l-14.36-40.82h16.53l8.48,25.74,19.15-25.74h17.61l-31.79,40.82-4.69,22.4h-15.63l4.69-22.4Z"/>
        <path class="cls-1" d="M453.09,259.64l-14.36-40.82h16.53l8.48,25.74,19.15-25.74h17.61l-31.79,40.82-4.69,22.4h-15.63l4.69-22.4Z"/>
        <path class="cls-1" d="M493.15,272.46l9.39-44.07,11.56-9.57h35.31l7.59,9.57-9.39,44.07-11.65,9.57h-35.31l-7.5-9.57ZM532.98,267.76l7.41-34.68h-23.3l-7.41,34.68h23.3Z"/>
        <path class="cls-1" d="M559.78,272.46l11.38-53.64h15.62l-10.39,48.94h21.49l10.39-48.94h15.63l-11.47,53.64-11.56,9.57h-33.59l-7.49-9.57Z"/>
        <path class="cls-1" d="M636.42,218.82h42.35l7.59,9.57-4.79,22.3-11.2,9.31,6.41,22.03h-16.08l-5.96-21.68h-11.56l-4.61,21.68h-15.62l13.45-63.21ZM666.85,246.54l2.98-13.99h-20.77l-2.98,13.99h20.77Z"/>
        <path class="cls-1" d="M735.09,233.18h-17.43l2.98-14.36h50.57l-3.07,14.36h-17.43l-10.39,48.85h-15.62l10.39-48.85Z"/>
        <path class="cls-1" d="M779.68,218.82h42.35l7.59,9.57-4.79,22.3-11.2,9.31,6.41,22.03h-16.08l-5.96-21.68h-11.56l-4.61,21.68h-15.62l13.45-63.21ZM810.11,246.54l2.98-13.99h-20.77l-2.98,13.99h20.77Z"/>
        <path class="cls-1" d="M843.41,218.82h46.51l-2.98,13.91h-30.88l-2.35,10.84h23.57l-2.89,13.72h-23.66l-2.26,10.84h31.25l-2.98,13.91h-46.78l13.45-63.21Z"/>
        <path class="cls-1" d="M900.28,218.82h15.63l-5.69,26.82,26.64-26.82h19.51l-24.93,23.57,12.1,39.64h-16.79l-8.58-28.18-12.28,11.92-3.43,16.25h-15.62l13.45-63.21Z"/>
      </g>
      <path class="cls-1" d="M1051.58,173.22c-9.1,0-18.67-.41-28.7-1.23-10.04-.82-19.6-1.85-28.7-3.08-9.11-1.23-16.76-2.35-22.96-3.33l2.79-33.81c6.62.49,14.32,1.15,23.12,1.98,8.79.82,17.63,1.52,26.53,2.1,8.89.58,16.65.86,23.27.86s11.53-.57,15.36-1.73c3.83-1.15,6.62-2.84,8.38-5.06,1.76-2.22,2.64-5.14,2.64-8.76,0-2.96-.83-5.31-2.48-7.03-1.66-1.73-4.81-3.2-9.46-4.44-4.66-1.23-11.33-2.42-20.01-3.57-13.45-1.81-24.78-3.99-33.98-6.54-9.21-2.55-16.6-5.76-22.19-9.62-5.59-3.86-9.62-8.76-12.1-14.68-2.48-5.92-3.72-13.08-3.72-21.47,0-14.14,3.15-25.08,9.46-32.82,6.31-7.73,15.25-13.16,26.84-16.29C1017.24,1.57,1030.99,0,1046.93,0c7.44,0,15.87.33,25.29.99,9.41.66,18.62,1.4,27.62,2.22,9,.83,16.81,1.73,23.43,2.71l-2.17,34.55c-6.21-.49-13.5-1.03-21.87-1.61-8.38-.57-16.81-1.11-25.29-1.6-8.48-.49-15.93-.74-22.34-.74-6,0-11.02.45-15.05,1.35-4.04.91-6.93,2.27-8.69,4.07-1.76,1.81-2.64,4.2-2.64,7.16,0,3.29.93,5.88,2.79,7.77,1.86,1.9,5.12,3.45,9.77,4.69,4.66,1.23,11.33,2.67,20.01,4.32,13.44,2.31,24.72,4.69,33.82,7.16,9.1,2.47,16.39,5.51,21.88,9.13,5.48,3.62,9.46,8.27,11.94,13.94,2.48,5.67,3.72,12.96,3.72,21.84,0,13.49-3,24.31-8.99,32.45-6,8.14-14.79,13.98-26.38,17.52-11.59,3.54-25.65,5.31-42.2,5.31Z"/>
      <path class="cls-1" d="M52.77,173.22V37.61H0V0h160.88v37.61h-50.83v135.6h-57.27Z"/>
      <path class="cls-1" d="M176.08,173.22V0h87.84c19.09,0,34.96,1.75,47.62,5.25,12.65,3.5,22.15,9.55,28.47,18.16,6.33,8.62,9.49,20.68,9.49,36.2,0,12.45-2.52,22.86-7.56,31.21-5.04,8.36-12.5,14.84-22.36,19.45l28.64,62.94h-58.88l-21.87-52.45h-34.11v52.45h-57.27ZM233.35,84.18h32.18c6.22,0,11.21-1.02,14.96-3.07,3.75-2.05,6.48-4.9,8.21-8.57,1.71-3.66,2.57-7.89,2.57-12.66,0-7.84-2.2-13.73-6.59-17.65-4.4-3.92-11.32-5.88-20.75-5.88h-30.57v47.84Z"/>
      <path class="cls-1" d="M364.71,173.22V0h152.51v36.84h-95.24v30.7h49.47v36.59h-49.47v31.98h95.24v37.1h-152.51Z"/>
      <polygon class="cls-1" points="896.88 0 896.88 58.84 824.33 0 743.29 0 850.08 86.61 743.29 173.22 824.33 173.22 896.88 114.38 896.88 173.22 954.15 173.22 954.15 0 896.88 0"/>
      <g>
        <polygon class="cls-1" points="538.88 5.25 532.41 5.25 532.41 0 538.88 5.25"/>
        <polygon class="cls-1" points="551.83 15.75 532.41 15.75 532.41 10.5 545.37 10.5 551.83 15.75"/>
        <polygon class="cls-1" points="564.77 26.24 532.41 26.24 532.41 21 558.32 21 564.77 26.24"/>
        <polygon class="cls-1" points="577.71 36.74 532.41 36.74 532.41 31.49 571.24 31.49 577.71 36.74"/>
        <polygon class="cls-1" points="590.66 47.24 532.41 47.24 532.41 41.99 584.19 41.99 590.66 47.24"/>
        <polygon class="cls-1" points="603.62 57.74 532.41 57.74 532.41 52.49 597.14 52.49 603.62 57.74"/>
        <polygon class="cls-1" points="616.57 68.24 532.41 68.24 532.41 62.99 610.08 62.99 616.57 68.24"/>
        <polygon class="cls-1" points="629.49 78.73 532.41 78.73 532.41 73.49 623.03 73.49 629.49 78.73"/>
        <polygon class="cls-1" points="639.21 86.61 635.98 89.23 532.41 89.23 532.41 83.98 635.97 83.98 639.21 86.61"/>
        <polygon class="cls-1" points="629.51 94.48 623.03 99.73 532.41 99.73 532.41 94.48 629.51 94.48"/>
        <polygon class="cls-1" points="616.57 104.98 610.08 110.23 532.41 110.23 532.41 104.98 616.57 104.98"/>
        <polygon class="cls-1" points="603.62 115.48 597.14 120.73 532.41 120.73 532.41 115.48 603.62 115.48"/>
        <polygon class="cls-1" points="590.66 125.98 584.2 131.22 532.41 131.22 532.41 125.98 590.66 125.98"/>
        <polygon class="cls-1" points="577.73 136.47 571.25 141.72 532.41 141.72 532.41 136.47 577.73 136.47"/>
        <polygon class="cls-1" points="564.78 146.97 558.32 152.22 532.41 152.22 532.41 146.97 564.78 146.97"/>
        <polygon class="cls-1" points="551.83 157.47 545.37 162.72 532.41 162.72 532.41 157.47 551.83 157.47"/>
        <polygon class="cls-1" points="538.88 167.97 532.41 173.22 532.41 167.97 538.88 167.97"/>
        <polygon class="cls-1" points="749.75 5.25 743.28 5.25 743.28 0 749.75 5.25"/>
        <polygon class="cls-1" points="762.7 15.75 743.28 15.75 743.28 10.5 756.23 10.5 762.7 15.75"/>
        <polygon class="cls-1" points="775.64 26.24 743.28 26.24 743.28 21 769.18 21 775.64 26.24"/>
        <polygon class="cls-1" points="788.58 36.74 743.28 36.74 743.28 31.49 782.12 31.49 788.58 36.74"/>
        <polygon class="cls-1" points="801.53 47.24 743.28 47.24 743.28 41.99 795.07 41.99 801.53 47.24"/>
        <polygon class="cls-1" points="814.48 57.74 743.28 57.74 743.28 52.49 808.01 52.49 814.48 57.74"/>
        <polygon class="cls-1" points="827.43 68.24 743.28 68.24 743.28 62.99 820.95 62.99 827.43 68.24"/>
        <polygon class="cls-1" points="840.37 78.73 743.28 78.73 743.28 73.49 833.9 73.49 840.37 78.73"/>
        <polygon class="cls-1" points="850.08 86.61 846.85 89.23 743.28 89.23 743.28 83.98 846.85 83.98 850.08 86.61"/>
        <polygon class="cls-1" points="840.38 94.48 833.9 99.73 743.28 99.73 743.28 94.48 840.38 94.48"/>
        <polygon class="cls-1" points="827.43 104.98 820.95 110.23 743.28 110.23 743.28 104.98 827.43 104.98"/>
        <polygon class="cls-1" points="814.48 115.48 808.01 120.73 743.28 120.73 743.28 115.48 814.48 115.48"/>
        <polygon class="cls-1" points="801.53 125.98 795.08 131.22 743.28 131.22 743.28 125.98 801.53 125.98"/>
        <polygon class="cls-1" points="788.6 136.47 782.12 141.72 743.28 141.72 743.28 136.47 788.6 136.47"/>
        <polygon class="cls-1" points="775.65 146.97 769.18 152.22 743.28 152.22 743.28 146.97 775.65 146.97"/>
        <polygon class="cls-1" points="762.7 157.47 756.23 162.72 743.28 162.72 743.28 157.47 762.7 157.47"/>
        <polygon class="cls-1" points="749.75 167.97 743.28 173.22 743.28 167.97 749.75 167.97"/>
        <polygon class="cls-1" points="686.01 5.25 686.01 10.5 626.4 10.5 619.93 5.25 686.01 5.25"/>
        <polygon class="cls-1" points="686.01 15.75 686.01 21 639.35 21 632.88 15.75 686.01 15.75"/>
        <polygon class="cls-1" points="686.01 26.24 686.01 31.49 652.3 31.49 645.82 26.24 686.01 26.24"/>
        <polygon class="cls-1" points="686.01 36.74 686.01 41.99 665.24 41.99 658.76 36.74 686.01 36.74"/>
        <polygon class="cls-1" points="686.01 47.24 686.01 52.49 678.19 52.49 671.72 47.24 686.01 47.24"/>
        <polygon class="cls-1" points="684.67 57.74 686.01 57.74 686.01 58.83 684.67 57.74"/>
        <polygon class="cls-1" points="686.01 114.38 686.01 115.48 684.65 115.48 686.01 114.38"/>
        <polygon class="cls-1" points="678.18 120.73 686.01 120.73 686.01 125.98 671.71 125.98 678.18 120.73"/>
        <polygon class="cls-1" points="665.24 131.22 686.01 131.22 686.01 136.47 658.77 136.47 665.24 131.22"/>
        <polygon class="cls-1" points="652.31 141.72 686.01 141.72 686.01 146.97 645.83 146.97 652.31 141.72"/>
        <polygon class="cls-1" points="639.35 152.22 686.01 152.22 686.01 157.47 632.87 157.47 639.35 152.22"/>
        <polygon class="cls-1" points="626.4 162.72 686.01 162.72 686.01 167.97 619.92 167.97 626.4 162.72"/>
      </g>
    </g>
  </g>
</svg>