<?xml version="1.0" encoding="UTF-8"?>
<svg id="Calque_2" data-name="Calque 2" xmlns="http://www.w3.org/2000/svg" viewBox="0 0 1071.83 267.72">
  <defs>
    <style>
      .cls-1 {
        fill: #fdfeff;
      }

      .cls-2 {
        fill: #fdec3f;
      }
    </style>
  </defs>
  <g id="Calque_1-2" data-name="Calque 1">
    <g id="uuid-b68c0136-20bc-4968-a7fb-93c5a78796ac" data-name="Calque 1-2">
      <g>
        <g>
          <path class="cls-1" d="M998.19,164.43c-8.64,0-17.72-.39-27.24-1.17-9.53-.78-18.6-1.76-27.24-2.92-8.65-1.17-15.91-2.23-21.79-3.16l2.65-32.09c6.28.47,13.59,1.09,21.95,1.88,8.34.78,16.73,1.44,25.18,1.99,8.44.55,15.8.82,22.09.82s10.94-.54,14.58-1.64c3.64-1.09,6.28-2.7,7.95-4.8s2.51-4.88,2.51-8.32c0-2.81-.79-5.04-2.35-6.67-1.58-1.64-4.57-3.04-8.98-4.21-4.42-1.17-10.75-2.3-18.99-3.39-12.77-1.72-23.52-3.79-32.25-6.21-8.74-2.42-15.76-5.47-21.06-9.13s-9.13-8.32-11.49-13.93c-2.35-5.62-3.53-12.42-3.53-20.38,0-13.42,2.99-23.81,8.98-31.15,5.99-7.34,14.48-12.49,25.48-15.46C965.61,1.5,978.66,0,993.78,0c7.06,0,15.06.31,24.01.94,8.93.63,17.67,1.33,26.22,2.11,8.54.79,15.96,1.64,22.24,2.57l-2.06,32.8c-5.89-.47-12.81-.98-20.76-1.53-7.95-.54-15.96-1.05-24.01-1.52-8.05-.47-15.12-.7-21.21-.7-5.7,0-10.46.43-14.29,1.28-3.83.86-6.58,2.15-8.25,3.86-1.67,1.72-2.51,3.99-2.51,6.8,0,3.12.88,5.58,2.65,7.38,1.77,1.8,4.86,3.27,9.27,4.45,4.42,1.17,10.75,2.53,18.99,4.1,12.76,2.19,23.46,4.45,32.1,6.8s15.56,5.23,20.77,8.67c5.2,3.44,8.98,7.85,11.33,13.23,2.35,5.38,3.53,12.3,3.53,20.73,0,12.81-2.85,23.08-8.53,30.8-5.7,7.73-14.04,13.27-25.04,16.63-11,3.36-24.35,5.04-40.06,5.04v-.02Z"/>
          <path class="cls-1" d="M50.09,164.43V35.7H0V0h152.71v35.7h-48.25v128.72h-54.37Z"/>
          <path class="cls-1" d="M167.14,164.43V0h83.38c18.12,0,33.18,1.66,45.2,4.98,12.01,3.32,21.03,9.07,27.02,17.24,6.01,8.18,9.01,19.63,9.01,34.36,0,11.82-2.39,21.7-7.18,29.63-4.78,7.94-11.87,14.09-21.22,18.46l27.19,59.74h-55.89l-20.76-49.79h-32.38v49.79h-54.37ZM221.5,79.91h30.55c5.9,0,10.64-.97,14.2-2.91s6.15-4.65,7.79-8.13c1.62-3.47,2.44-7.49,2.44-12.02,0-7.44-2.09-13.03-6.26-16.75-4.18-3.72-10.75-5.58-19.7-5.58h-29.02v45.41h0Z"/>
          <path class="cls-1" d="M346.19,164.43V0h144.77v34.97h-90.4v29.14h46.96v34.73h-46.96v30.36h90.4v35.22h-144.77,0Z"/>
          <g>
            <polygon class="cls-2" points="505.39 0 505.39 164.43 606.76 82.21 505.39 0"/>
            <polygon class="cls-2" points="705.55 0 705.55 164.43 806.93 82.21 705.55 0"/>
            <polygon class="cls-2" points="651.18 0 582.31 0 651.18 55.84 651.18 0"/>
            <polygon class="cls-2" points="582.31 164.43 651.18 164.43 651.18 108.57 582.31 164.43"/>
            <polygon class="cls-1" points="851.34 0 851.34 55.84 782.48 0 705.55 0 806.92 82.21 705.55 164.43 782.48 164.43 851.34 108.57 851.34 164.43 905.71 164.43 905.71 0 851.34 0"/>
          </g>
        </g>
        <g>
          <path class="cls-2" d="M176.79,207.71h40.2l7.2,9.08-4.63,21.95-11.06,9.08h-25.46l-4.21,19.89h-14.83l12.77-60h0ZM205.59,234.8l2.91-14.06h-19.72l-3,14.06h19.8Z"/>
          <path class="cls-2" d="M235.66,207.71h14.84l-9.95,46.63h28.38l-2.83,13.37h-43.21l12.77-60h0Z"/>
          <path class="cls-2" d="M306.11,207.71h14.91l11.14,60h-15.68l-1.37-8.74h-24.35l-5.06,8.74h-16.2l36.6-60ZM313.05,245.94l-3.17-20.07-11.57,20.07h14.74Z"/>
          <path class="cls-2" d="M348.43,246.46l-13.63-38.75h15.69l8.05,24.43,18.18-24.43h16.72l-30.18,38.75-4.45,21.26h-14.84l4.45-21.26h0Z"/>
          <path class="cls-2" d="M430.09,246.46l-13.63-38.75h15.69l8.05,24.43,18.18-24.43h16.72l-30.18,38.75-4.45,21.26h-14.84l4.45-21.26h0Z"/>
          <path class="cls-2" d="M468.11,258.63l8.91-41.83,10.97-9.08h33.52l7.2,9.08-8.91,41.83-11.06,9.08h-33.52l-7.12-9.08h0ZM505.92,254.17l7.03-32.92h-22.12l-7.03,32.92h22.12Z"/>
          <path class="cls-2" d="M531.36,258.63l10.8-50.92h14.83l-9.86,46.46h20.4l9.86-46.46h14.84l-10.89,50.92-10.97,9.08h-31.88l-7.11-9.08h0Z"/>
          <path class="cls-2" d="M604.11,207.71h40.2l7.2,9.08-4.55,21.17-10.63,8.84,6.08,20.91h-15.26l-5.66-20.58h-10.97l-4.38,20.58h-14.83l12.77-60h.02ZM632.99,234.02l2.83-13.28h-19.72l-2.83,13.28h19.72Z"/>
          <path class="cls-2" d="M697.77,221.34h-16.55l2.83-13.63h48l-2.91,13.63h-16.55l-9.86,46.37h-14.83l9.86-46.37Z"/>
          <path class="cls-2" d="M740.09,207.71h40.2l7.2,9.08-4.55,21.17-10.63,8.84,6.08,20.91h-15.26l-5.66-20.58h-10.97l-4.38,20.58h-14.83l12.77-60h.02ZM768.98,234.02l2.83-13.28h-19.72l-2.83,13.28h19.72Z"/>
          <path class="cls-2" d="M800.59,207.71h44.15l-2.83,13.2h-29.31l-2.23,10.29h22.37l-2.74,13.02h-22.46l-2.15,10.29h29.66l-2.83,13.2h-44.4l12.77-60h0Z"/>
          <path class="cls-2" d="M854.57,207.71h14.84l-5.4,25.46,25.29-25.46h18.52l-23.66,22.37,11.49,37.63h-15.94l-8.14-26.75-11.66,11.31-3.26,15.42h-14.83l12.77-60h0Z"/>
        </g>
      </g>
    </g>
  </g>
</svg>