<?xml version="1.0" encoding="UTF-8"?>
<svg id="Calque_2" data-name="Calque 2" xmlns="http://www.w3.org/2000/svg" viewBox="0 0 1129.15 282.03">
  <defs>
    <style>
      .cls-1 {
        fill: #020a0a;
      }

      .cls-2 {
        fill: #ffef36;
      }
    </style>
  </defs>
  <g id="Calque_1-2" data-name="Calque 1">
    <g>
      <g>
        <path class="cls-1" d="M1051.58,173.22c-9.1,0-18.67-.41-28.7-1.23-10.04-.82-19.6-1.85-28.7-3.08-9.11-1.23-16.76-2.35-22.96-3.33l2.79-33.81c6.62.49,14.32,1.15,23.12,1.98,8.79.82,17.63,1.52,26.53,2.1,8.89.58,16.65.86,23.27.86s11.53-.57,15.36-1.73c3.83-1.15,6.62-2.84,8.38-5.06,1.76-2.22,2.64-5.14,2.64-8.76,0-2.96-.83-5.31-2.48-7.03-1.66-1.73-4.81-3.2-9.46-4.44-4.66-1.23-11.33-2.42-20.01-3.57-13.45-1.81-24.78-3.99-33.98-6.54-9.21-2.55-16.6-5.76-22.19-9.62-5.59-3.86-9.62-8.76-12.1-14.68-2.48-5.92-3.72-13.08-3.72-21.47,0-14.14,3.15-25.08,9.46-32.82,6.31-7.73,15.25-13.16,26.84-16.29,11.59-3.12,25.34-4.69,41.27-4.69,7.44,0,15.87.33,25.29.99,9.41.66,18.62,1.4,27.62,2.22,9,.83,16.81,1.73,23.43,2.71l-2.17,34.55c-6.21-.49-13.5-1.03-21.87-1.61-8.38-.57-16.81-1.11-25.29-1.6-8.48-.49-15.93-.74-22.34-.74-6,0-11.02.45-15.05,1.35-4.04.91-6.93,2.27-8.69,4.07-1.76,1.81-2.64,4.2-2.64,7.16,0,3.29.93,5.88,2.79,7.77,1.86,1.9,5.12,3.45,9.77,4.69,4.66,1.23,11.33,2.67,20.01,4.32,13.44,2.31,24.72,4.69,33.82,7.16,9.1,2.47,16.39,5.51,21.88,9.13,5.48,3.62,9.46,8.27,11.94,13.94,2.48,5.67,3.72,12.96,3.72,21.84,0,13.49-3,24.31-8.99,32.45-6,8.14-14.79,13.98-26.38,17.52-11.59,3.54-25.65,5.31-42.2,5.31Z"/>
        <path class="cls-1" d="M52.77,173.22V37.61H0V0h160.88v37.61h-50.83v135.6h-57.27Z"/>
        <path class="cls-1" d="M176.08,173.22V0h87.84c19.09,0,34.96,1.75,47.62,5.25,12.65,3.5,22.15,9.55,28.47,18.16,6.33,8.62,9.49,20.68,9.49,36.2,0,12.45-2.52,22.86-7.56,31.21-5.04,8.36-12.5,14.84-22.36,19.45l28.64,62.94h-58.88l-21.87-52.45h-34.11v52.45h-57.27ZM233.35,84.18h32.18c6.22,0,11.21-1.02,14.96-3.07,3.75-2.05,6.48-4.9,8.21-8.57,1.71-3.66,2.57-7.89,2.57-12.66,0-7.84-2.2-13.73-6.59-17.65-4.4-3.92-11.32-5.88-20.75-5.88h-30.57v47.84Z"/>
        <path class="cls-1" d="M364.71,173.22V0h152.51v36.84h-95.24v30.7h49.47v36.59h-49.47v31.98h95.24v37.1h-152.51Z"/>
        <g>
          <polygon class="cls-2" points="532.42 0 532.42 173.22 639.22 86.61 532.42 0"/>
          <polygon class="cls-2" points="743.29 0 743.29 173.22 850.09 86.61 743.29 0"/>
          <polygon class="cls-2" points="686.01 0 613.46 0 686.01 58.83 686.01 0"/>
          <polygon class="cls-2" points="613.46 173.22 686.01 173.22 686.01 114.38 613.46 173.22"/>
          <polygon class="cls-1" points="896.88 0 896.88 58.83 824.33 0 743.29 0 850.08 86.61 743.29 173.22 824.33 173.22 896.88 114.38 896.88 173.22 954.15 173.22 954.15 0 896.88 0"/>
        </g>
      </g>
      <g>
        <path class="cls-2" d="M186.25,218.82h42.35l7.59,9.57-4.88,23.12-11.65,9.57h-26.82l-4.43,20.95h-15.62l13.45-63.21ZM216.59,247.36l3.07-14.81h-20.77l-3.16,14.81h20.86Z"/>
        <path class="cls-2" d="M248.27,218.82h15.63l-10.48,49.12h29.9l-2.98,14.09h-45.52l13.45-63.21Z"/>
        <path class="cls-2" d="M322.48,218.82h15.71l11.74,63.21h-16.52l-1.44-9.21h-25.65l-5.33,9.21h-17.07l38.56-63.21ZM329.79,259.1l-3.34-21.14-12.19,21.14h15.53Z"/>
        <path class="cls-2" d="M367.07,259.64l-14.36-40.82h16.53l8.48,25.74,19.15-25.74h17.61l-31.79,40.82-4.69,22.4h-15.63l4.69-22.4Z"/>
        <path class="cls-2" d="M453.09,259.64l-14.36-40.82h16.53l8.48,25.74,19.15-25.74h17.61l-31.79,40.82-4.69,22.4h-15.63l4.69-22.4Z"/>
        <path class="cls-2" d="M493.15,272.46l9.39-44.07,11.56-9.57h35.31l7.59,9.57-9.39,44.07-11.65,9.57h-35.31l-7.5-9.57ZM532.98,267.76l7.41-34.68h-23.3l-7.41,34.68h23.3Z"/>
        <path class="cls-2" d="M559.78,272.46l11.38-53.64h15.62l-10.39,48.94h21.49l10.39-48.94h15.63l-11.47,53.64-11.56,9.57h-33.59l-7.49-9.57Z"/>
        <path class="cls-2" d="M636.42,218.82h42.35l7.59,9.57-4.79,22.3-11.2,9.31,6.41,22.03h-16.08l-5.96-21.68h-11.56l-4.61,21.68h-15.62l13.45-63.21ZM666.85,246.54l2.98-13.99h-20.77l-2.98,13.99h20.77Z"/>
        <path class="cls-2" d="M735.09,233.18h-17.43l2.98-14.36h50.57l-3.07,14.36h-17.43l-10.39,48.85h-15.62l10.39-48.85Z"/>
        <path class="cls-2" d="M779.68,218.82h42.35l7.59,9.57-4.79,22.3-11.2,9.31,6.41,22.03h-16.08l-5.96-21.68h-11.56l-4.61,21.68h-15.62l13.45-63.21ZM810.11,246.54l2.98-13.99h-20.77l-2.98,13.99h20.77Z"/>
        <path class="cls-2" d="M843.41,218.82h46.51l-2.98,13.91h-30.88l-2.35,10.84h23.57l-2.89,13.72h-23.66l-2.26,10.84h31.25l-2.98,13.91h-46.78l13.45-63.21Z"/>
        <path class="cls-2" d="M900.28,218.82h15.63l-5.69,26.82,26.64-26.82h19.51l-24.93,23.57,12.1,39.64h-16.79l-8.58-28.18-12.28,11.92-3.43,16.25h-15.62l13.45-63.21Z"/>
      </g>
    </g>
  </g>
</svg>