<?xml version="1.0" encoding="UTF-8"?>
<svg id="Calque_2" data-name="Calque 2" xmlns="http://www.w3.org/2000/svg" viewBox="0 0 193.47 193.47">
  <defs>
    <style>
      .cls-1 {
        fill: #1d1d1b;
      }

      .cls-2 {
        fill: #fff;
      }
    </style>
  </defs>
  <g id="Calque_1-2" data-name="Calque 1">
    <g>
      <rect class="cls-1" width="193.47" height="193.47" rx="5.67" ry="5.67"/>
      <g>
        <path class="cls-2" d="M175.08,110.67c-1.46,0-3-.07-4.62-.2-1.61-.13-3.15-.3-4.62-.5-1.46-.2-2.7-.38-3.69-.54l.45-5.44c1.07.08,2.3.19,3.72.32,1.41.13,2.84.24,4.27.34,1.43.09,2.68.14,3.74.14s1.85-.09,2.47-.28c.62-.18,1.07-.46,1.35-.81s.42-.83.42-1.41c0-.48-.13-.85-.4-1.13-.27-.28-.77-.52-1.52-.71-.75-.2-1.82-.39-3.22-.58-2.16-.29-3.99-.64-5.47-1.05-1.48-.41-2.67-.93-3.57-1.55-.9-.62-1.55-1.41-1.95-2.36-.4-.95-.6-2.1-.6-3.45,0-2.28.51-4.03,1.52-5.28,1.01-1.24,2.45-2.12,4.32-2.62s4.08-.75,6.64-.75c1.2,0,2.55.05,4.07.16,1.51.11,3,.23,4.44.36,1.45.13,2.7.28,3.77.44l-.35,5.56c-1-.08-2.17-.17-3.52-.26-1.35-.09-2.7-.18-4.07-.26-1.37-.08-2.56-.12-3.59-.12-.97,0-1.77.07-2.42.22-.65.15-1.12.36-1.4.66-.28.29-.42.68-.42,1.15,0,.53.15.95.45,1.25.3.3.82.56,1.57.75.75.2,1.82.43,3.22.69,2.16.37,3.98.75,5.44,1.15,1.46.4,2.64.89,3.52,1.47.88.58,1.52,1.33,1.92,2.24.4.91.6,2.08.6,3.51,0,2.17-.48,3.91-1.45,5.22-.97,1.31-2.38,2.25-4.24,2.82-1.86.57-4.13.85-6.79.85Z"/>
        <path class="cls-2" d="M14.4,110.67v-21.82H5.91v-6.05h25.88v6.05h-8.18v21.82h-9.21Z"/>
        <path class="cls-2" d="M34.23,110.67v-27.87h14.13c3.07,0,5.62.28,7.66.84,2.04.56,3.56,1.54,4.58,2.92,1.02,1.39,1.53,3.33,1.53,5.82,0,2-.41,3.68-1.22,5.02-.81,1.35-2.01,2.39-3.6,3.13l4.61,10.13h-9.47l-3.52-8.44h-5.49v8.44h-9.21ZM43.45,96.34h5.18c1,0,1.8-.16,2.41-.49.6-.33,1.04-.79,1.32-1.38.28-.59.41-1.27.41-2.04,0-1.26-.35-2.21-1.06-2.84-.71-.63-1.82-.95-3.34-.95h-4.92v7.7Z"/>
        <path class="cls-2" d="M64.58,110.67v-27.87h24.54v5.93h-15.32v4.94h7.96v5.89h-7.96v5.15h15.32v5.97h-24.54Z"/>
        <polygon class="cls-2" points="150.19 82.8 150.19 92.27 138.52 82.8 125.48 82.8 142.67 96.73 125.48 110.67 138.52 110.67 150.19 101.2 150.19 110.67 159.41 110.67 159.41 82.8 150.19 82.8"/>
        <g>
          <polygon class="cls-2" points="92.6 83.65 91.56 83.65 91.56 82.8 92.6 83.65"/>
          <polygon class="cls-2" points="94.68 85.33 91.56 85.33 91.56 84.49 93.64 84.49 94.68 85.33"/>
          <polygon class="cls-2" points="96.77 87.02 91.56 87.02 91.56 86.18 95.73 86.18 96.77 87.02"/>
          <polygon class="cls-2" points="98.85 88.71 91.56 88.71 91.56 87.87 97.81 87.87 98.85 88.71"/>
          <polygon class="cls-2" points="100.93 90.4 91.56 90.4 91.56 89.56 99.89 89.56 100.93 90.4"/>
          <polygon class="cls-2" points="103.01 92.09 91.56 92.09 91.56 91.25 101.97 91.25 103.01 92.09"/>
          <polygon class="cls-2" points="105.1 93.78 91.56 93.78 91.56 92.93 104.06 92.93 105.1 93.78"/>
          <polygon class="cls-2" points="107.18 95.47 91.56 95.47 91.56 94.62 106.14 94.62 107.18 95.47"/>
          <polygon class="cls-2" points="108.74 96.73 108.22 97.16 91.56 97.16 91.56 96.31 108.22 96.31 108.74 96.73"/>
          <polygon class="cls-2" points="107.18 98 106.14 98.85 91.56 98.85 91.56 98 107.18 98"/>
          <polygon class="cls-2" points="105.1 99.69 104.06 100.53 91.56 100.53 91.56 99.69 105.1 99.69"/>
          <polygon class="cls-2" points="103.01 101.38 101.97 102.22 91.56 102.22 91.56 101.38 103.01 101.38"/>
          <polygon class="cls-2" points="100.93 103.07 99.89 103.91 91.56 103.91 91.56 103.07 100.93 103.07"/>
          <polygon class="cls-2" points="98.85 104.76 97.81 105.6 91.56 105.6 91.56 104.76 98.85 104.76"/>
          <polygon class="cls-2" points="96.77 106.45 95.73 107.29 91.56 107.29 91.56 106.45 96.77 106.45"/>
          <polygon class="cls-2" points="94.68 108.13 93.64 108.98 91.56 108.98 91.56 108.13 94.68 108.13"/>
          <polygon class="cls-2" points="92.6 109.82 91.56 110.67 91.56 109.82 92.6 109.82"/>
          <polygon class="cls-2" points="126.53 83.65 125.48 83.65 125.48 82.8 126.53 83.65"/>
          <polygon class="cls-2" points="128.61 85.33 125.48 85.33 125.48 84.49 127.57 84.49 128.61 85.33"/>
          <polygon class="cls-2" points="130.69 87.02 125.48 87.02 125.48 86.18 129.65 86.18 130.69 87.02"/>
          <polygon class="cls-2" points="132.77 88.71 125.48 88.71 125.48 87.87 131.73 87.87 132.77 88.71"/>
          <polygon class="cls-2" points="134.86 90.4 125.48 90.4 125.48 89.56 133.81 89.56 134.86 90.4"/>
          <polygon class="cls-2" points="136.94 92.09 125.48 92.09 125.48 91.25 135.9 91.25 136.94 92.09"/>
          <polygon class="cls-2" points="139.02 93.78 125.48 93.78 125.48 92.93 137.98 92.93 139.02 93.78"/>
          <polygon class="cls-2" points="141.1 95.47 125.48 95.47 125.48 94.62 140.06 94.62 141.1 95.47"/>
          <polygon class="cls-2" points="142.67 96.73 142.15 97.16 125.48 97.16 125.48 96.31 142.15 96.31 142.67 96.73"/>
          <polygon class="cls-2" points="141.11 98 140.06 98.85 125.48 98.85 125.48 98 141.11 98"/>
          <polygon class="cls-2" points="139.02 99.69 137.98 100.53 125.48 100.53 125.48 99.69 139.02 99.69"/>
          <polygon class="cls-2" points="136.94 101.38 135.9 102.22 125.48 102.22 125.48 101.38 136.94 101.38"/>
          <polygon class="cls-2" points="134.86 103.07 133.82 103.91 125.48 103.91 125.48 103.07 134.86 103.07"/>
          <polygon class="cls-2" points="132.78 104.76 131.73 105.6 125.48 105.6 125.48 104.76 132.78 104.76"/>
          <polygon class="cls-2" points="130.69 106.45 129.65 107.29 125.48 107.29 125.48 106.45 130.69 106.45"/>
          <polygon class="cls-2" points="128.61 108.13 127.57 108.98 125.48 108.98 125.48 108.13 128.61 108.13"/>
          <polygon class="cls-2" points="126.53 109.82 125.48 110.67 125.48 109.82 126.53 109.82"/>
          <polygon class="cls-2" points="116.27 83.65 116.27 84.49 106.68 84.49 105.64 83.65 116.27 83.65"/>
          <polygon class="cls-2" points="116.27 85.33 116.27 86.18 108.76 86.18 107.72 85.33 116.27 85.33"/>
          <polygon class="cls-2" points="116.27 87.02 116.27 87.87 110.85 87.87 109.8 87.02 116.27 87.02"/>
          <polygon class="cls-2" points="116.27 88.71 116.27 89.56 112.93 89.56 111.89 88.71 116.27 88.71"/>
          <polygon class="cls-2" points="116.27 90.4 116.27 91.25 115.01 91.25 113.97 90.4 116.27 90.4"/>
          <polygon class="cls-2" points="116.06 92.09 116.27 92.09 116.27 92.27 116.06 92.09"/>
          <polygon class="cls-2" points="116.27 101.2 116.27 101.38 116.05 101.38 116.27 101.2"/>
          <polygon class="cls-2" points="115.01 102.22 116.27 102.22 116.27 103.07 113.97 103.07 115.01 102.22"/>
          <polygon class="cls-2" points="112.93 103.91 116.27 103.91 116.27 104.76 111.89 104.76 112.93 103.91"/>
          <polygon class="cls-2" points="110.85 105.6 116.27 105.6 116.27 106.45 109.81 106.45 110.85 105.6"/>
          <polygon class="cls-2" points="108.76 107.29 116.27 107.29 116.27 108.13 107.72 108.13 108.76 107.29"/>
          <polygon class="cls-2" points="106.68 108.98 116.27 108.98 116.27 109.82 105.64 109.82 106.68 108.98"/>
        </g>
      </g>
    </g>
  </g>
</svg>