<?xml version="1.0" encoding="UTF-8"?>
<svg id="Calque_2" data-name="Calque 2" xmlns="http://www.w3.org/2000/svg" viewBox="0 0 180.86 112.46">
  <defs>
    <style>
      .cls-1 {
        fill: #1d1d1b;
      }
    </style>
  </defs>
  <g id="Calque_1-2" data-name="Calque 1">
    <g>
      <g>
        <path class="cls-1" d="M.76,80.13h0c-.86-.67-1.02-1.9-.35-2.76L59.77.76c.7-.91,2.03-1.02,2.88-.25l52.34,47.53c.8.73.86,1.97.13,2.78h0c-.73.8-1.97.86-2.78.13L61.58,4.85,3.52,79.78c-.66.86-1.9,1.01-2.76.35Z"/>
        <path class="cls-1" d="M67.57,80.13h0c-.86-.67-1.02-1.9-.35-2.76l43.31-55.9c.7-.91,2.03-1.02,2.88-.25l38.09,34.59c.8.73.86,1.97.13,2.78h0c-.73.8-1.97.86-2.78.13l-36.51-33.16-42.01,54.22c-.66.86-1.9,1.01-2.76.35Z"/>
        <rect class="cls-1" x="142.32" y="2.63" width="3.93" height="67.97" rx="1.97" ry="1.97" transform="translate(20.17 118.81) rotate(-47.76)"/>
        <rect class="cls-1" x="149.66" y="-10.26" width="3.93" height="77.6" rx="1.97" ry="1.97" transform="translate(28.56 121.6) rotate(-47.76)"/>
      </g>
      <g>
        <path class="cls-1" d="M33.58,96.32h-5.15v-3.45h14.15v3.45h-5.1v15.8h-3.91v-15.8Z"/>
        <path class="cls-1" d="M50.71,92.87h7.47c4.39,0,6.79,1.95,6.79,6.34,0,2.66-1.08,4.44-2.83,5.55l2.75,7.36h-4.27l-2.24-6.45h-3.76v6.45h-3.91v-19.25ZM58.24,102.33c1.95,0,2.75-1.36,2.75-3.06,0-1.84-.93-3.06-2.8-3.06h-3.57v6.11h3.62Z"/>
        <path class="cls-1" d="M73.92,92.87h12.46v3.4h-8.55v4.5h6.85v3.34h-6.85v4.61h8.55v3.4h-12.46v-19.25Z"/>
        <path class="cls-1" d="M95.27,92.87h3.91v8.46l2.6-.28,3.17-8.18h4.44l-4.19,9.65,4.3,9.6h-4.5l-3.23-7.67-2.6.28v7.39h-3.91v-19.25Z"/>
        <path class="cls-1" d="M117.72,92.87h3.91v8.46l2.6-.28,3.17-8.18h4.44l-4.19,9.65,4.3,9.6h-4.5l-3.23-7.67-2.6.28v7.39h-3.91v-19.25Z"/>
        <path class="cls-1" d="M139.35,111.58l.4-3.03c1.64.23,4.33.51,5.8.51,2.09,0,3-.99,3-2.49,0-1.19-.68-1.73-3.45-2.52-4.33-1.25-5.97-2.72-5.97-5.8,0-3.99,2.66-5.72,6.57-5.72,1.87,0,4.73.42,6.34.76l-.31,3.09c-1.73-.2-4.44-.45-5.63-.45-2.09,0-3.09.76-3.09,2.04s.76,1.64,3.99,2.66c4.16,1.33,5.44,2.49,5.44,5.69,0,4.19-2.86,6.14-6.65,6.14-1.93,0-4.78-.51-6.43-.88Z"/>
      </g>
    </g>
  </g>
</svg>