<?xml version="1.0" encoding="UTF-8"?>
<svg id="Calque_2" data-name="Calque 2" xmlns="http://www.w3.org/2000/svg" viewBox="0 0 157.42 91.51">
  <g id="Calque_1-2" data-name="Calque 1">
    <g>
      <path d="M157.42,56.94c-7.7-3.5-16.15-5.13-24.53-6.18-19.31-2.43-38.93-1.04-58.08-4.84-9.62-1.91-24.21-5.67-26.89-16.63-.45-1.84-.77-5.6.45-7.16.55-.7,4.12-1.3,5.29-1.68,8.18-2.61,14.88-6.61,21.2-12.37,2.27-2.07,4.9-5.64,7.09-7.33.98-.76,1.56-1.15,2.61-.14,8.65,8.4,16.68,17.83,27.12,24.11,7.84,4.72,16.54,6.67,24.69,10.62,8.7,4.22,19.75,11.15,21.05,21.6Z"/>
      <path d="M41.78,29.96c2.12,20.91,40.82,24.02,56.58,24.99s33.22.41,48.56,4.91c2.76.81,5.97,1.86,8.27,3.55-1.91-.26-3.78-.82-5.67-1.16-31.74-5.7-65.88,2.94-95.04,15.22-9,3.79-17.95,8.61-27.05,11.99-2.58.96-5.22,2-8.02,2.05,3.91-3.36,8.34-6.12,12.77-8.74,12.26-7.26,25.31-13.35,38.84-17.87l20.02-5.34c-9.12-.59-18.37-1.48-27.21-3.87-10.88-2.95-26.97-10.37-24.7-24.17.34-2.08,1.26-4.82,2.67-6.4.11,1.56-.16,3.31,0,4.85Z"/>
      <path d="M29.85,79.08c.62-3.22.14-8.09-2.36-10.45-3.02-2.86-9.35-2.82-13.31-3.85-7.56-1.96-12.09-7.15-14.17-14.55.15-.14,3.46.51,4.1.51,5.12.04,8.49-1.01,13.38,1.77,5.37,3.05,12.03,12.86,13.86,18.72.83,2.67,1.39,6.27-1.5,7.84Z"/>
      <path d="M31.83,63.41c-.57.14-.41-.11-.57-.31-7.54-9.74-9.22-17.94.17-27.31l1.76-2.71c3.23,5.93,5.69,12.43,2.91,19.07-1.58,3.78-5.01,6.74-4.27,11.27Z"/>
      <path d="M23.13,53.46l-6.6-4.72c-6-5.36-6.88-10.78-4.72-18.41.24-.85,1.03-3.66,1.74-3.98,2.58,4.31,7.56,6.39,9.09,11.55,1.68,5.67-1.96,10.23.48,15.55Z"/>
    </g>
  </g>
</svg>