<?xml version="1.0" encoding="UTF-8"?>
<svg id="Calque_2" data-name="Calque 2" xmlns="http://www.w3.org/2000/svg" viewBox="0 0 104.66 162.29">
  <defs>
    <style>
      .cls-1 {
        fill: #fff;
      }
    </style>
  </defs>
  <g id="Calque_1-2" data-name="Calque 1">
    <g>
      <path class="cls-1" d="M23.89,120.55c-12.96-8.41-21.77-23.07-19.7-38.9C7.56,52.87,38.89,36.03,50.44,11.03c13.79,25.1,50.44,45.84,38.15,79.22-5.46,14.82-18.63,25.05-33.91,28.2-18.04,2.87-74.89,2.7-46.83,32,22.99,19.52,61.59,9.4,88.99,7.83,2.1-.12,7.37.92,7.81-1.9.11-.7-.49-1.82-1.18-2.03-28.68-1.31-66.39,13.19-91.58-5.94-27.38-24.61,28.64-22.82,43.07-26.01,26.16-5.37,44.88-28.3,38.83-55.56C87.93,40.41,58.24,25.68,50.6,0,41.44,29.33,8.65,45.54,1.27,75.4c-4.14,17.8,1.91,34.94,16.62,45.66l5.99-.51ZM50.27,105.03v12.19l3.69-.87-.03-18c2.64-7.85,12.65-15.47,19.37-20.04-.43-2.98-8.29,4.07-9.51,4.86-3.8,3.14-6.94,6.92-9.7,11.01-1.41-4.61,2.93-10.33,5.04-14.33,5.59-8.42,17.67-13.4,16.01-25.42-.17-.37-.98-.45-1.17-.33-.27.17-.77,5.13-1.18,6.34-2.72,7.92-12.2,11.99-16.12,19.28l-2.73,5.11c-.09-3.65-.97-9.92-.16-13.34,3.3-5.71,9.59-10.57,15.02-14.03,2.52-5.36-8.69,3.69-9.53,4.5-1.88,1.69-3.26,3.57-4.91,5.42-.2.22.02.64-.76.43l-.67-33.23-.31-.69-1.33-.11-.86,52.4c-.67.69-.37.15-.59-.09-1.48-2.28-23.17-21.26-22.92-14.18,7.15,4.69,20.41,12.63,23.65,20.79.15.91,0,7.8-.32,8.16-.58.15-.67-.24-1-.5-1.73-1.32-3.37-3.05-5.24-4.45-11.17-7.68-24.35-14.46-25.32-29.79-.38-.56-1.44-.24-1.53.49-.45,19.73,22.24,25.71,33.08,38.42ZM41.92,126.57l-7.7.81c-4.16,3.02-9.69,9.48-4.96,14.34,8.46,6.45,23.16,5.52,33.21,5.23,1.5-.2,2.36-1.63,1.66-3.03s-5.41-.59-7.03-.65c-14.45-.66-39.38-.45-15.18-16.71Z"/>
      <path d="M23.89,120.55l-5.99.51C3.18,110.34-2.86,93.2,1.28,75.4,8.65,45.54,41.44,29.32,50.6,0c7.64,25.68,37.33,40.41,43.19,66.85,6.04,27.26-12.68,50.19-38.83,55.56-14.42,3.19-70.45,1.4-43.07,26.01,25.2,19.12,62.89,4.62,91.58,5.93.69.21,1.29,1.34,1.18,2.03-.43,2.81-5.71,1.78-7.81,1.9-27.4,1.57-66,11.69-88.99-7.83-28.04-29.31,28.77-29.12,46.83-31.99,15.28-3.16,28.45-13.38,33.91-28.21,12.29-33.38-24.36-54.12-38.15-79.22C38.89,36.03,7.56,52.87,4.19,81.65c-2.07,15.82,6.74,30.49,19.7,38.9Z"/>
      <path d="M50.44,86.16l.86-52.4,1.33.11.31.69.67,33.23c.76-.43.56-.2.76-.43,1.65-1.85,3.03-3.73,4.91-5.42.85-.81,12.05-9.84,9.53-4.5-5.43,3.47-11.72,8.32-15.02,14.03-.61,3.53-.28,9.45.16,13.34l2.73-5.11c3.92-7.28,13.41-11.36,16.12-19.28.41-1.2.91-6.16,1.18-6.34.19-.13,1-.04,1.17.33,1.66,12.01-10.42,16.99-16.01,25.42-2.12,4.03-6.45,9.67-5.04,14.33,2.76-4.09,5.9-7.87,9.7-11.01,1.22-.79,9.05-7.83,9.51-4.86-6.7,4.55-16.75,12.21-19.37,20.04,0,0,.03,18,.03,18l-3.69.87v-12.19c-10.84-12.7-33.54-18.69-33.08-38.42.08-.73,1.15-1.05,1.53-.49.98,15.33,14.14,22.1,25.32,29.79,1.87,1.4,3.51,3.13,5.23,4.45.33.26.42.65,1,.5.31-.36.47-7.25.32-8.16-3.36-8.02-17.03-15.36-23.65-20.79-.35-1.23.84-2.14,1.97-1.63"/>
      <path d="M41.92,126.57c-24.22,16.27.78,16.04,15.18,16.71,1.62.05,6.3-.81,7.03.65s-.16,2.83-1.66,3.03c-10.05.29-24.75,1.22-33.21-5.23-4.73-4.86.8-11.32,4.96-14.34l7.7-.81Z"/>
    </g>
  </g>
</svg>