<?xml version="1.0" encoding="UTF-8"?>
<svg id="Calque_2" data-name="Calque 2" xmlns="http://www.w3.org/2000/svg" viewBox="0 0 177.04 171.82">
  <defs>
    <style>
      .cls-1 {
        fill: #1d1d1b;
      }

      .cls-2 {
        fill: #fff;
      }
    </style>
  </defs>
  <g id="Calque_1-2" data-name="Calque 1">
    <g>
      <path class="cls-1" d="M82.1.21c72.2-4.77,121.64,73.4,79.31,134.61C121.35,192.77,26.09,180.57,4.3,112.81-13.35,57.93,25.42,3.96,82.1.21ZM147.57,31.36C106.02-10.55,31.99,2.86,11.61,59.19c-22.88,63.24,37.04,120.73,99.91,103.05,57.46-16.15,78.89-87.68,36.06-130.88Z"/>
      <path class="cls-2" d="M147.57,31.36c42.84,43.21,21.41,114.73-36.06,130.88C48.64,179.91-11.28,122.42,11.61,59.19,31.99,2.86,106.02-10.55,147.57,31.36ZM165.36,65.71c.23-.29-1.39-6.22-2.53-6.68l-37.8-23.37-3.05,1.28-14.16,12.37c-.19.91.23.55.58.76.64.4,2.48,1.63,3.05,1.5,1.91-.42,11.82-10.22,12.54-9.69l5.87,10.1,15.05,15.97-.13-1.66-14.03-22.16,34.61,21.58ZM121.75,49.53l-7.86,5.85-12.39-7.4-3.15-.05c-23.46,15.71-46.55,35.23-75.95,37.78,1.68.81,3.82,2.5,5.52,3.02,2.59.8,8.62-.98,11.46-1.78,22.73-6.36,41.22-22.11,60.65-34.66l13.64,7.84,2.25-.72,2.24,6.74,3.6-16.63ZM61.96,69.31l-28-12.96-23.89,17.48c-1.17,1.46-.58,3.62-.7,5.37l21.8-15.28,1.36,5.82,9.65,8.11-6.29-15.73,21.43,10.24,4.64-3.04ZM167.61,76.95c-3.21,1.48-6.33,3.17-9.58,4.57-15.06,6.5-32.62,10.75-48.77,13.72-8.38,1.54-24.47,2.46-31.46,5.41-3.62,1.52-4.69,4.43-.86,6.51,5.64,3.07,18.26,3.92,25.27,6.2,3.08,1,12.4,4.84,12.7,8.4.34,3.91-13.1,8.32-16.19,9.26-21.53,6.51-44.55,8.16-66.88,9.99,1.52,1.19,2.73,3.57,4.69,3.85,13.23-.66,26.41-1.96,39.44-4.21,9.89-1.71,37.36-6.58,42.56-15.44,4.5-7.66-7.57-13.42-13.19-15.45l-23.61-5.83c23.86-3.43,48-7.04,70.69-15.4,2.18-.81,15.23-5.8,15.52-7.35l-.35-4.22ZM60.61,104.37l-51.69-22.93.28,4.54,49.33,22.5c4.39,2.75,8.46,5.54,13.42,7.26,3.05,1.05,19.56,4.1,20.13,6.4-.8,1.81-3.87,2.35-5.66,2.88-13.57,4.05-28.64,4.81-42.68,6.33l-20,.46,3,3.97c16.78.15,34.02-.96,50.51-4.19,3.5-.69,7.58-1.52,10.97-2.52,4.3-1.27,11.65-4.01,7.46-9.63-4.07-5.46-22.46-6.14-29.37-11.09-.85-.61-1.76-1.2-1.68-2.39.18-1.88,9.46-5.36,10.82-7.42-3.65.42-7.85,1.05-11.23,2.47-1.52.64-3.57,1.49-3.61,3.37Z"/>
      <path class="cls-1" d="M167.61,76.95l.35,4.22c-.29,1.55-13.34,6.55-15.52,7.35-22.68,8.36-46.83,11.97-70.69,15.4l23.61,5.83c5.62,2.03,17.69,7.79,13.19,15.45-5.2,8.86-32.67,13.73-42.56,15.44-13.03,2.25-26.21,3.55-39.44,4.21-1.96-.27-3.18-2.65-4.69-3.85,22.33-1.84,45.35-3.48,66.88-9.99,3.09-.94,16.52-5.35,16.19-9.26-.31-3.56-9.62-7.4-12.7-8.4-7.01-2.28-19.64-3.13-25.27-6.2-3.83-2.09-2.76-4.99.86-6.51,6.99-2.94,23.08-3.87,31.46-5.41,16.15-2.97,33.71-7.21,48.77-13.72,3.25-1.41,6.38-3.09,9.58-4.57Z"/>
      <path class="cls-1" d="M60.61,104.37c.04-1.87,2.09-2.73,3.61-3.37,3.38-1.43,7.59-2.06,11.23-2.47-1.36,2.06-10.64,5.55-10.82,7.42-.08,1.18.84,1.78,1.68,2.39,6.92,4.95,25.3,5.62,29.37,11.09,4.19,5.62-3.16,8.36-7.46,9.63-3.39,1-7.47,1.83-10.97,2.52-16.49,3.23-33.73,4.34-50.51,4.19l-3-3.97,20-.46c14.03-1.51,29.11-2.28,42.68-6.33,1.79-.53,4.86-1.07,5.66-2.88-.57-2.29-17.08-5.34-20.13-6.4-4.97-1.71-9.03-4.5-13.42-7.26l-49.33-22.5-.28-4.54,51.69,22.93Z"/>
      <path class="cls-1" d="M121.75,49.53l-3.6,16.63-2.24-6.74-2.25.72-13.64-7.84c-19.43,12.55-37.92,28.3-60.65,34.66-2.84.8-8.87,2.58-11.46,1.78-1.7-.53-3.83-2.22-5.52-3.02,29.4-2.55,52.49-22.07,75.95-37.78l3.15.05,12.39,7.4,7.86-5.85Z"/>
      <path class="cls-1" d="M165.36,65.71l-34.61-21.58,14.03,22.16.13,1.66-15.05-15.97-5.87-10.1c-.73-.54-10.64,9.27-12.54,9.69-.57.12-2.41-1.11-3.05-1.5-.35-.21-.76.15-.58-.76l14.16-12.37,3.05-1.28,37.8,23.37c1.14.46,2.76,6.39,2.53,6.68Z"/>
      <path class="cls-1" d="M61.96,69.31l-4.64,3.04-21.43-10.24,6.29,15.73-9.65-8.11-1.36-5.82-21.8,15.28c.11-1.75-.47-3.91.7-5.37l23.89-17.48,28,12.96Z"/>
    </g>
  </g>
</svg>